<?xml version="1.0" encoding="UTF-8"?> <!-- Generator: Adobe Illustrator 23.0.1, SVG Export Plug-In . SVG Version: 6.00 Build 0) --> <svg xmlns="http://www.w3.org/2000/svg" xmlns:xlink="http://www.w3.org/1999/xlink" id="Layer_1" x="0px" y="0px" viewBox="0 0 232.84 82.57" style="enable-background:new 0 0 232.84 82.57;" xml:space="preserve"> <style type="text/css"> .st0{fill:#FFCB0A;} .st1{fill:#FFC115;} .st2{fill:#E35826;} .st3{fill:#FFFFFF;} </style> <path id="XMLID_246_" class="st0" d="M71.47,17.38c-0.03-0.03-0.07-0.07-0.1-0.1c0.03,0.04,0.07,0.07,0.1,0.11V17.38z"></path> <path id="XMLID_245_" class="st1" d="M43.7,7.35c-3.56,0-7.01,0.56-10.24,1.61l0,0c0,0,41.62-3.61,41.87,31.94c0,0,0,0.04,0,0.11 h2.68C77.68,22.16,61.98,7.35,43.7,7.35z"></path> <path id="XMLID_244_" class="st0" d="M33.67,27.51c0.01,0,0.01-0.01,0.02-0.01C33.68,27.51,33.67,27.51,33.67,27.51L33.67,27.51z"></path> <path id="XMLID_243_" class="st1" d="M39.83,15c-4.28,0-8.33,1.06-11.94,2.93l0.02,0c2.44-0.85,5.26-1.38,7.95-1.38 c12.64,0,24.83,9.51,25.73,24.46h5.52C66.68,25.08,53.49,15,39.83,15z"></path> <path id="XMLID_242_" class="st1" d="M40.08,10.27c-8.45,0-16.23,3.05-22.38,8.17c6.72-7.76,16.47-12.64,27.34-12.64 c10.35,0,19.67,4.36,26.33,11.47C64.29,8.9,53.66,3.52,41.71,3.52c-21.19,0-38.32,16.75-38.52,37.5h6.78 c0.36-15.44,13.59-27.47,29.82-27.47c16.08,0,29.18,12.2,29.77,27.47h4.04c-0.23-8.24-3.01-13.06-6.73-18.23 C60.26,15.1,50.71,10.27,40.08,10.27z"></path> <path id="XMLID_227_" class="st1" d="M41.44,25.7c-2.78,0-5.44,0.66-7.75,1.8c1.5-0.39,3.08-0.6,4.72-0.6 c8.98,0,16.16,5.87,16.62,14.11h3.21C58.3,32.97,50.45,25.7,41.44,25.7z"></path> <path id="XMLID_226_" class="st1" d="M41.75,23.55c6.23-0.08,13.16,3.93,16.93,10.63l-0.01-0.04c-4.13-8.86-10.67-13.9-20.39-13.57 c-11.36,0.38-20.6,8.46-23.17,18.96c1.17-10.84,9.48-19.44,19.95-20.62l0,0c-0.4-0.02-0.8-0.05-1.2-0.05 c-12.06,0-21.91,9.81-22.53,22.15h10.37C21.32,30.97,31.21,23.69,41.75,23.55z"></path> <path id="XMLID_225_" class="st2" d="M33.46,73.06c0,0,6.68,1.61,10.25,1.61c18.28,0,34.03-15.03,34.31-33.66h-2.68 C75.33,43.02,74.67,72.92,33.46,73.06z"></path> <path id="XMLID_224_" class="st2" d="M35.86,65.47c-2.69,0-5.51-0.53-7.95-1.38l-0.02,0c3.61,1.88,7.66,2.93,11.94,2.93 c13.66,0,26.84-10.08,27.28-26.01h-5.52C62.06,53.27,48.5,65.47,35.86,65.47z"></path> <path id="XMLID_223_" class="st3" d="M71.47,64.64c-0.03,0.04-0.07,0.07-0.1,0.11c0.03-0.03,0.07-0.07,0.1-0.1V64.64z"></path> <path id="XMLID_222_" class="st2" d="M39.79,68.48c-16.23,0-29.46-12.02-29.82-27.47H3.19c0.2,20.75,17.33,37.5,38.52,37.5 c11.95,0,22.58-5.38,29.66-13.76c-6.67,7.12-15.99,11.47-26.33,11.47c-10.87,0-20.62-4.88-27.34-12.64 c6.15,5.11,13.93,8.17,22.38,8.17c10.63,0,20.19-4.83,26.79-12.51c3.71-5.17,6.67-11.49,6.73-18.23h-4.04 C68.98,56.28,55.87,68.48,39.79,68.48z"></path> <path id="XMLID_221_" class="st3" d="M33.66,54.52c0.01,0,0.02,0,0.03,0.01C33.68,54.52,33.68,54.52,33.66,54.52L33.66,54.52z"></path> <path id="XMLID_220_" class="st2" d="M38.41,55.13c-1.64,0-3.23-0.21-4.72-0.6c2.31,1.14,4.97,1.8,7.75,1.8 c9.01,0,16.73-7.27,16.8-15.31h-3.21C55.09,48.99,47.39,55.13,38.41,55.13z"></path> <path id="XMLID_213_" class="st2" d="M33.86,63.17c0.4,0,0.8-0.03,1.2-0.05l0,0c-10.47-1.17-18.78-9.78-19.95-20.62 c2.57,10.49,11.81,18.57,23.17,18.96c9.73,0.33,16.26-4.71,20.39-13.57l0.01-0.04c-3.77,6.7-10.7,10.71-16.93,10.63 c-10.54-0.14-18.76-6.39-20.05-17.46H11.34C11.95,53.36,21.8,63.17,33.86,63.17z"></path> <path id="XMLID_211_" class="st2" d="M110.72,37.7c-0.09-0.11-0.38-0.33-0.89-0.64c-0.51-0.31-1.15-0.64-1.92-0.98 c-0.77-0.34-1.6-0.64-2.51-0.89c-0.91-0.26-1.82-0.38-2.72-0.38c-2.5,0-3.75,0.84-3.75,2.51c0,0.51,0.13,0.94,0.41,1.28 c0.27,0.34,0.67,0.65,1.19,0.92c0.52,0.27,1.18,0.52,1.98,0.75c0.79,0.23,1.72,0.48,2.77,0.77c1.45,0.4,2.75,0.83,3.92,1.3 c1.16,0.47,2.15,1.05,2.96,1.75c0.81,0.7,1.43,1.54,1.87,2.53c0.44,0.99,0.66,2.19,0.66,3.58c0,1.7-0.32,3.14-0.96,4.32 c-0.64,1.18-1.48,2.13-2.53,2.85c-1.05,0.72-2.26,1.25-3.62,1.58c-1.36,0.33-2.77,0.49-4.21,0.49c-1.11,0-2.24-0.09-3.41-0.26 c-1.16-0.17-2.3-0.42-3.41-0.75c-1.11-0.33-2.18-0.72-3.21-1.17c-1.04-0.45-1.99-0.98-2.87-1.58l3.07-6.09 c0.11,0.14,0.48,0.41,1.11,0.81c0.62,0.4,1.4,0.79,2.32,1.19c0.92,0.4,1.95,0.75,3.09,1.07c1.13,0.31,2.28,0.47,3.45,0.47 c2.47,0,3.7-0.75,3.7-2.26c0-0.57-0.19-1.04-0.55-1.4c-0.37-0.37-0.88-0.7-1.53-1c-0.65-0.3-1.43-0.58-2.32-0.83 c-0.89-0.25-1.87-0.54-2.92-0.85c-1.39-0.43-2.6-0.89-3.62-1.38c-1.02-0.5-1.87-1.07-2.53-1.72s-1.16-1.41-1.49-2.26 c-0.33-0.85-0.49-1.84-0.49-2.98c0-1.59,0.3-2.99,0.89-4.21s1.41-2.25,2.43-3.09c1.02-0.84,2.21-1.47,3.56-1.89 c1.35-0.43,2.77-0.64,4.28-0.64c1.05,0,2.09,0.1,3.11,0.3c1.02,0.2,2,0.45,2.94,0.77c0.94,0.31,1.81,0.67,2.62,1.06 c0.81,0.4,1.55,0.8,2.23,1.19L110.72,37.7z"></path> <path id="XMLID_208_" class="st2" d="M131.47,59.33c-2.24,0-4.29-0.44-6.13-1.32c-1.85-0.88-3.42-2.04-4.73-3.47 c-1.31-1.43-2.32-3.07-3.04-4.92c-0.72-1.84-1.09-3.75-1.09-5.71c0-1.99,0.38-3.9,1.13-5.75c0.75-1.84,1.8-3.47,3.15-4.88 c1.35-1.4,2.94-2.53,4.79-3.36c1.85-0.84,3.86-1.26,6.05-1.26c2.24,0,4.28,0.44,6.13,1.32c1.84,0.88,3.42,2.04,4.73,3.49 c1.3,1.45,2.31,3.09,3.02,4.94c0.71,1.85,1.07,3.72,1.07,5.62c0,1.99-0.38,3.9-1.13,5.75c-0.75,1.85-1.8,3.47-3.13,4.88 c-1.33,1.41-2.92,2.53-4.77,3.38C135.67,58.9,133.65,59.33,131.47,59.33z M123.59,44c0,1.16,0.17,2.29,0.51,3.39 s0.84,2.07,1.51,2.92c0.67,0.85,1.5,1.53,2.49,2.04c0.99,0.51,2.13,0.77,3.41,0.77c1.33,0,2.5-0.27,3.49-0.81 c0.99-0.54,1.82-1.24,2.47-2.11c0.65-0.87,1.14-1.85,1.47-2.94c0.33-1.09,0.49-2.21,0.49-3.34c0-1.16-0.17-2.29-0.51-3.38 c-0.34-1.09-0.85-2.06-1.53-2.9c-0.68-0.84-1.51-1.5-2.49-2c-0.98-0.5-2.11-0.75-3.38-0.75c-1.33,0-2.49,0.26-3.47,0.79 c-0.98,0.53-1.8,1.21-2.47,2.07c-0.67,0.85-1.16,1.82-1.49,2.92C123.75,41.75,123.59,42.87,123.59,44z"></path> <path id="XMLID_206_" class="st2" d="M149.5,59.07V28.84h6.98v24.1h14.65v6.13H149.5z"></path> <path id="XMLID_203_" class="st2" d="M184.25,28.84h6.3l11.03,30.23h-7.15l-2.34-6.77h-9.41l-2.3,6.77h-7.15L184.25,28.84z M190.93,47.49l-3.53-10.69l-3.62,10.69H190.93z"></path> <path id="XMLID_200_" class="st2" d="M204.56,59.07V28.84h13.62c1.42,0,2.73,0.3,3.94,0.89s2.25,1.38,3.13,2.34 c0.88,0.97,1.57,2.06,2.07,3.28c0.5,1.22,0.75,2.46,0.75,3.7c0,0.94-0.11,1.84-0.34,2.7c-0.23,0.87-0.55,1.68-0.98,2.45 c-0.42,0.77-0.94,1.45-1.55,2.07c-0.61,0.61-1.3,1.13-2.06,1.55l6.64,11.24h-7.88l-5.79-9.75h-4.56v9.75H204.56z M211.54,43.24h6.39 c0.82,0,1.53-0.39,2.13-1.17c0.6-0.78,0.89-1.78,0.89-3c0-1.25-0.34-2.24-1.02-2.98c-0.68-0.74-1.42-1.11-2.21-1.11h-6.17V43.24z"></path> <g id="XMLID_180_"> <path id="XMLID_197_" class="st3" d="M99.11,4.42h0.8l8.13,18.92h-0.98l-2.8-6.53h-9.49l-2.8,6.53h-1.01L99.11,4.42z M103.96,16.01 L99.51,5.59l-4.48,10.42H103.96z"></path> <path id="XMLID_195_" class="st3" d="M128.53,23.34V6.23l-7.94,13.43h-0.64l-7.94-13.43v17.11h-0.93V4.42h0.85l8.34,14.1l8.34-14.1 h0.85v18.92H128.53z"></path> <path id="XMLID_193_" class="st3" d="M147.08,22.49v0.85h-12.5V4.42h12.26v0.85h-11.33v7.97h9.91v0.85h-9.91v8.4H147.08z"></path> <path id="XMLID_190_" class="st3" d="M150.97,23.34V4.42h7.78c0.78,0,1.51,0.17,2.17,0.51c0.67,0.34,1.24,0.78,1.72,1.32 c0.48,0.54,0.85,1.16,1.12,1.85c0.27,0.69,0.4,1.4,0.4,2.11c0,0.73-0.11,1.42-0.33,2.08c-0.22,0.66-0.54,1.24-0.95,1.76 c-0.41,0.52-0.9,0.94-1.47,1.28c-0.57,0.34-1.2,0.54-1.89,0.61l4.74,7.41h-1.07l-4.69-7.3h-6.61v7.3H150.97z M151.91,15.18h7.01 c0.66,0,1.26-0.14,1.8-0.43c0.54-0.28,1-0.66,1.37-1.12c0.37-0.46,0.66-0.99,0.87-1.6c0.2-0.6,0.31-1.22,0.31-1.84 c0-0.64-0.12-1.26-0.36-1.85c-0.24-0.59-0.56-1.12-0.97-1.57c-0.41-0.45-0.89-0.82-1.44-1.09c-0.55-0.28-1.14-0.41-1.76-0.41h-6.82 V15.18z"></path> <path id="XMLID_188_" class="st3" d="M168.16,23.34V4.42h0.93v18.92H168.16z"></path> <path id="XMLID_186_" class="st3" d="M172.88,13.74c0-1.14,0.2-2.27,0.6-3.38c0.4-1.12,0.98-2.13,1.75-3.02 c0.76-0.9,1.7-1.63,2.81-2.19c1.11-0.56,2.38-0.84,3.8-0.84c1.69,0,3.12,0.39,4.3,1.16c1.18,0.77,2.06,1.76,2.62,2.97l-0.8,0.37 c-0.36-0.67-0.77-1.24-1.24-1.71c-0.47-0.46-0.98-0.83-1.53-1.12c-0.55-0.28-1.12-0.49-1.71-0.61c-0.59-0.12-1.17-0.19-1.76-0.19 c-1.26,0-2.39,0.25-3.37,0.76c-0.99,0.51-1.82,1.17-2.49,1.99c-0.68,0.82-1.19,1.74-1.53,2.77c-0.35,1.03-0.52,2.07-0.52,3.12 c0,1.16,0.2,2.27,0.61,3.33c0.41,1.07,0.97,2,1.69,2.81c0.72,0.81,1.57,1.45,2.55,1.93c0.98,0.48,2.03,0.72,3.14,0.72 c0.6,0,1.22-0.08,1.84-0.23c0.62-0.15,1.23-0.38,1.81-0.69c0.59-0.31,1.13-0.71,1.63-1.19c0.5-0.48,0.92-1.06,1.28-1.73l0.83,0.32 c-0.32,0.71-0.75,1.34-1.31,1.89c-0.55,0.55-1.16,1.01-1.84,1.39c-0.68,0.37-1.39,0.65-2.14,0.84c-0.76,0.19-1.49,0.28-2.2,0.28 c-1.3,0-2.48-0.28-3.56-0.85c-1.08-0.57-2-1.31-2.78-2.23c-0.78-0.91-1.39-1.95-1.83-3.12C173.1,16.14,172.88,14.95,172.88,13.74z"></path> <path id="XMLID_183_" class="st3" d="M198.46,4.42h0.8l8.13,18.92h-0.99l-2.8-6.53h-9.49l-2.8,6.53h-1.01L198.46,4.42z M203.31,16.01l-4.45-10.42l-4.48,10.42H203.31z"></path> <path id="XMLID_181_" class="st3" d="M211.36,6.17v17.16h-0.93V4.42h0.69l13.91,17.46V4.42h0.93v18.92h-0.91L211.36,6.17z"></path> </g> <g id="XMLID_151_"> <path id="XMLID_178_" class="st3" d="M99.24,77.14v0.77H91.3V65.98h7.79v0.77h-6.94v4.69h6.06v0.74h-6.06v4.96H99.24z"></path> <path id="XMLID_176_" class="st3" d="M102.43,67.6v10.31h-0.86V65.98h0.66l8.37,10.5v-10.5h0.86v11.93h-0.79L102.43,67.6z"></path> <path id="XMLID_174_" class="st3" d="M122.51,77.14v0.77h-7.95V65.98h7.8v0.77h-6.94v4.69h6.06v0.74h-6.06v4.96H122.51z"></path> <path id="XMLID_171_" class="st3" d="M124.84,77.91V65.98h4.96c0.5,0,0.97,0.11,1.39,0.32c0.42,0.21,0.79,0.5,1.1,0.85 c0.31,0.35,0.55,0.75,0.72,1.19c0.17,0.44,0.26,0.89,0.26,1.34c0,0.44-0.07,0.86-0.2,1.27c-0.13,0.41-0.32,0.78-0.57,1.1 c-0.25,0.32-0.54,0.59-0.89,0.81c-0.35,0.21-0.73,0.35-1.14,0.42l2.97,4.64h-0.99l-2.89-4.5h-3.86v4.5H124.84z M125.7,72.62h4.18 c0.38,0,0.73-0.08,1.04-0.25s0.58-0.39,0.81-0.66c0.22-0.27,0.4-0.59,0.51-0.94c0.12-0.35,0.18-0.71,0.18-1.08 c0-0.38-0.07-0.75-0.21-1.1c-0.14-0.35-0.33-0.66-0.57-0.93c-0.24-0.27-0.52-0.48-0.84-0.65c-0.32-0.16-0.66-0.24-1.03-0.24h-4.07 V72.62z"></path> <path id="XMLID_169_" class="st3" d="M144.53,76.05c-1.15,1.3-2.49,1.95-4.02,1.95c-0.81,0-1.55-0.17-2.24-0.52 c-0.69-0.35-1.28-0.81-1.77-1.38c-0.49-0.57-0.88-1.22-1.16-1.95c-0.28-0.73-0.42-1.47-0.42-2.22c0-0.78,0.14-1.54,0.41-2.27 c0.27-0.73,0.66-1.37,1.14-1.93c0.49-0.56,1.07-1.01,1.74-1.34c0.67-0.33,1.41-0.5,2.2-0.5c0.59,0,1.13,0.06,1.6,0.19 c0.48,0.13,0.9,0.31,1.28,0.54c0.38,0.23,0.7,0.5,0.97,0.82c0.27,0.32,0.51,0.67,0.7,1.05l-0.71,0.42c-0.4-0.78-0.94-1.35-1.6-1.71 c-0.67-0.35-1.42-0.53-2.26-0.53c-0.71,0-1.34,0.15-1.92,0.45c-0.57,0.3-1.06,0.7-1.46,1.19c-0.4,0.49-0.71,1.05-0.92,1.68 c-0.21,0.63-0.32,1.27-0.32,1.93c0,0.71,0.12,1.38,0.37,2.01c0.25,0.63,0.59,1.19,1.02,1.67c0.43,0.48,0.94,0.86,1.52,1.15 c0.58,0.28,1.21,0.43,1.88,0.43c0.73,0,1.42-0.17,2.08-0.5c0.65-0.34,1.28-0.87,1.89-1.6v-2.3h-2.71v-0.69h3.44v5.79h-0.74V76.05z"></path> <path id="XMLID_167_" class="st3" d="M146.98,65.98l4.17,6.6l4.18-6.6h0.96l-4.7,7.42v4.5h-0.86v-4.53l-4.69-7.39H146.98z"></path> <path id="XMLID_165_" class="st3" d="M168.84,67.97c-0.77-0.86-1.87-1.29-3.28-1.29c-1.16,0-2.01,0.22-2.55,0.66 c-0.53,0.44-0.8,1.04-0.8,1.79c0,0.38,0.07,0.7,0.2,0.95c0.13,0.25,0.34,0.47,0.63,0.65c0.29,0.18,0.65,0.33,1.08,0.45 c0.44,0.12,0.96,0.25,1.58,0.39c0.64,0.13,1.22,0.28,1.74,0.45c0.52,0.16,0.96,0.37,1.33,0.61c0.36,0.25,0.64,0.55,0.84,0.91 c0.2,0.36,0.29,0.8,0.29,1.33s-0.1,0.99-0.31,1.38c-0.21,0.39-0.5,0.72-0.87,0.98c-0.38,0.26-0.82,0.46-1.34,0.6 c-0.52,0.13-1.1,0.2-1.74,0.2c-1.86,0-3.43-0.59-4.72-1.78l0.45-0.69c0.5,0.53,1.12,0.94,1.85,1.25c0.73,0.31,1.55,0.46,2.45,0.46 c1.04,0,1.86-0.19,2.44-0.57c0.59-0.38,0.88-0.96,0.88-1.73c0-0.39-0.08-0.73-0.24-1c-0.16-0.27-0.39-0.51-0.7-0.71 c-0.31-0.2-0.7-0.38-1.17-0.52c-0.47-0.14-1.02-0.28-1.65-0.42c-0.64-0.13-1.2-0.28-1.69-0.43c-0.49-0.15-0.9-0.34-1.23-0.57 c-0.33-0.23-0.58-0.51-0.75-0.83c-0.17-0.32-0.25-0.73-0.25-1.23c0-0.54,0.1-1.01,0.31-1.43c0.21-0.42,0.5-0.76,0.86-1.05 c0.37-0.28,0.81-0.5,1.33-0.65c0.51-0.15,1.09-0.22,1.71-0.22c0.77,0,1.46,0.11,2.07,0.34c0.6,0.23,1.15,0.58,1.65,1.05 L168.84,67.97z"></path> <path id="XMLID_162_" class="st3" d="M176.82,77.99c-0.83,0-1.59-0.17-2.27-0.52c-0.68-0.35-1.27-0.8-1.76-1.36 c-0.49-0.56-0.87-1.2-1.14-1.93c-0.27-0.73-0.4-1.47-0.4-2.23c0-0.79,0.14-1.56,0.43-2.28c0.28-0.73,0.68-1.37,1.18-1.93 c0.5-0.56,1.09-1.01,1.77-1.34c0.68-0.33,1.42-0.5,2.22-0.5c0.83,0,1.59,0.18,2.28,0.53c0.69,0.35,1.28,0.81,1.76,1.39 c0.49,0.57,0.86,1.22,1.13,1.94c0.27,0.72,0.4,1.45,0.4,2.19c0,0.81-0.14,1.57-0.43,2.3c-0.29,0.73-0.68,1.37-1.18,1.92 c-0.5,0.55-1.09,1-1.77,1.33C178.35,77.83,177.61,77.99,176.82,77.99z M172.1,71.95c0,0.68,0.11,1.34,0.34,1.97 c0.23,0.63,0.55,1.19,0.97,1.68c0.42,0.49,0.92,0.88,1.5,1.17c0.58,0.29,1.22,0.44,1.91,0.44c0.72,0,1.36-0.15,1.94-0.45 c0.58-0.3,1.07-0.7,1.48-1.2c0.41-0.5,0.73-1.06,0.95-1.69c0.22-0.63,0.34-1.26,0.34-1.92c0-0.68-0.12-1.34-0.35-1.97 c-0.24-0.63-0.56-1.19-0.98-1.68c-0.42-0.49-0.92-0.88-1.49-1.17c-0.57-0.29-1.2-0.44-1.88-0.44c-0.72,0-1.37,0.15-1.95,0.45 c-0.58,0.3-1.08,0.7-1.49,1.2c-0.42,0.5-0.73,1.06-0.96,1.69C172.21,70.66,172.1,71.3,172.1,71.95z"></path> <path id="XMLID_160_" class="st3" d="M183.89,71.86c0-0.72,0.13-1.43,0.38-2.14s0.62-1.35,1.1-1.91c0.48-0.56,1.07-1.02,1.77-1.37 c0.7-0.35,1.5-0.53,2.39-0.53c1.06,0,1.97,0.24,2.72,0.73c0.75,0.49,1.31,1.11,1.68,1.87l-0.71,0.4c-0.21-0.41-0.46-0.76-0.75-1.04 c-0.29-0.28-0.59-0.51-0.92-0.68c-0.33-0.17-0.67-0.3-1.03-0.38s-0.71-0.12-1.06-0.12c-0.76,0-1.43,0.15-2.02,0.46 c-0.58,0.31-1.08,0.71-1.48,1.2c-0.4,0.49-0.71,1.05-0.92,1.67c-0.21,0.62-0.31,1.25-0.31,1.87c0,0.71,0.12,1.38,0.37,2.02 c0.25,0.64,0.58,1.2,1.01,1.69c0.42,0.49,0.93,0.88,1.51,1.17c0.58,0.29,1.21,0.44,1.88,0.44c0.36,0,0.73-0.04,1.11-0.13 c0.38-0.09,0.75-0.23,1.09-0.42c0.35-0.19,0.67-0.43,0.97-0.73s0.55-0.65,0.76-1.05l0.74,0.35c-0.2,0.45-0.48,0.85-0.82,1.19 c-0.35,0.35-0.73,0.64-1.16,0.87c-0.43,0.24-0.88,0.41-1.35,0.53c-0.48,0.12-0.94,0.18-1.4,0.18c-0.82,0-1.57-0.18-2.24-0.54 c-0.68-0.36-1.26-0.83-1.76-1.4c-0.49-0.58-0.88-1.23-1.15-1.97C184.02,73.37,183.89,72.63,183.89,71.86z"></path> <path id="XMLID_158_" class="st3" d="M196.3,77.91V65.98h0.86v11.93H196.3z"></path> <path id="XMLID_156_" class="st3" d="M208.23,77.14v0.77h-7.95V65.98h7.8v0.77h-6.94v4.69h6.06v0.74h-6.06v4.96H208.23z"></path> <path id="XMLID_154_" class="st3" d="M218.9,66.76h-4.37v11.15h-0.86V66.76h-4.37v-0.77h9.59V66.76z"></path> <path id="XMLID_152_" class="st3" d="M220.44,65.98l4.17,6.6l4.18-6.6h0.96l-4.7,7.42v4.5h-0.86v-4.53l-4.69-7.39H220.44z"></path> </g> <path id="XMLID_150_" class="st2" d="M40.6,31.89c-5.01,0-9.07,4.04-9.11,9.05h18.23C49.68,35.94,45.61,31.89,40.6,31.89z"></path> <path id="XMLID_149_" class="st1" d="M31.49,40.94c0,0.03-0.01,0.05-0.01,0.07c0,5.04,4.08,9.12,9.12,9.12 c5.04,0,9.12-4.08,9.12-9.12c0-0.03-0.01-0.05-0.01-0.07H31.49z"></path> <path id="XMLID_148_" class="st0" d="M27.78,32.43c0.16-0.15,0.32-0.3,0.49-0.44C28.1,32.13,27.94,32.28,27.78,32.43z"></path> <path id="XMLID_147_" class="st0" d="M27.68,32.53c0.03-0.03,0.07-0.07,0.1-0.1C27.75,32.46,27.72,32.5,27.68,32.53z"></path> <path id="XMLID_146_" class="st1" d="M24.17,41.08h2.04c0-0.02,0-0.04,0-0.07c0-4.35,1.93-8.23,4.98-10.87 c-1.15,0.51-2.1,1.15-2.91,1.84c-0.16,0.15-0.33,0.29-0.49,0.44c-0.03,0.03-0.07,0.07-0.1,0.1C25.51,34.73,24.17,37.74,24.17,41.08 C24.17,41.08,24.17,41.08,24.17,41.08z"></path> <path id="XMLID_145_" class="st2" d="M26.21,41.08h-2.04c0,0.33,0.02,0.66,0.05,0.99c0.1,0.93,0.26,1.79,0.48,2.56 c1.07,3.5,3.67,6.32,7.02,7.69C28.39,49.7,26.23,45.65,26.21,41.08z"></path> </svg> 